<mxfile host="app.diagrams.net" modified="2021-01-19T11:34:51.611Z" agent="5.0 (Macintosh; Intel Mac OS X 10_15_7) AppleWebKit/537.36 (KHTML, like Gecko) Chrome/87.0.4280.141 Safari/537.36" etag="GThRQndSX9CSNEl7UbdA" version="14.2.4" type="github">
  <diagram id="3QglBxp78l0rG4sINujh" name="Page-1">
    <mxGraphModel dx="1426" dy="645" grid="1" gridSize="10" guides="1" tooltips="1" connect="1" arrows="1" fold="1" page="1" pageScale="1" pageWidth="827" pageHeight="1169" math="0" shadow="0">
      <root>
        <mxCell id="0" />
        <mxCell id="1" parent="0" />
        <mxCell id="f-bGw2C7DWIZB9Q9RAM1-1" value="" style="rounded=1;whiteSpace=wrap;html=1;fillColor=#9999FF;" vertex="1" parent="1">
          <mxGeometry x="200" y="120" width="200" height="60" as="geometry" />
        </mxCell>
        <mxCell id="f-bGw2C7DWIZB9Q9RAM1-5" value="HMS投递" style="edgeStyle=orthogonalEdgeStyle;rounded=0;orthogonalLoop=1;jettySize=auto;html=1;entryX=0;entryY=0.5;entryDx=0;entryDy=0;" edge="1" parent="1" source="f-bGw2C7DWIZB9Q9RAM1-2" target="f-bGw2C7DWIZB9Q9RAM1-1">
          <mxGeometry relative="1" as="geometry" />
        </mxCell>
        <mxCell id="f-bGw2C7DWIZB9Q9RAM1-2" value="Actor" style="shape=umlActor;verticalLabelPosition=bottom;verticalAlign=top;html=1;" vertex="1" parent="1">
          <mxGeometry x="60" y="120" width="30" height="60" as="geometry" />
        </mxCell>
        <mxCell id="f-bGw2C7DWIZB9Q9RAM1-3" value="RocketMQ集群" style="text;html=1;strokeColor=none;fillColor=none;align=center;verticalAlign=middle;whiteSpace=wrap;rounded=0;" vertex="1" parent="1">
          <mxGeometry x="250" y="120" width="100" height="30" as="geometry" />
        </mxCell>
        <mxCell id="f-bGw2C7DWIZB9Q9RAM1-17" style="edgeStyle=orthogonalEdgeStyle;rounded=0;orthogonalLoop=1;jettySize=auto;html=1;exitX=0.75;exitY=1;exitDx=0;exitDy=0;curved=1;" edge="1" parent="1" source="f-bGw2C7DWIZB9Q9RAM1-4" target="f-bGw2C7DWIZB9Q9RAM1-10">
          <mxGeometry relative="1" as="geometry">
            <Array as="points">
              <mxPoint x="333" y="230" />
              <mxPoint x="500" y="230" />
            </Array>
          </mxGeometry>
        </mxCell>
        <mxCell id="f-bGw2C7DWIZB9Q9RAM1-23" value="1.一天内的消息转给Pulsar" style="edgeLabel;html=1;align=center;verticalAlign=middle;resizable=0;points=[];" vertex="1" connectable="0" parent="f-bGw2C7DWIZB9Q9RAM1-17">
          <mxGeometry x="-0.0766" y="4" relative="1" as="geometry">
            <mxPoint as="offset" />
          </mxGeometry>
        </mxCell>
        <mxCell id="f-bGw2C7DWIZB9Q9RAM1-4" value="45天及其以上" style="text;html=1;strokeColor=none;fillColor=none;align=center;verticalAlign=middle;whiteSpace=wrap;rounded=0;" vertex="1" parent="1">
          <mxGeometry x="235" y="160" width="130" height="20" as="geometry" />
        </mxCell>
        <mxCell id="f-bGw2C7DWIZB9Q9RAM1-10" value="" style="rounded=1;whiteSpace=wrap;html=1;fillColor=#FF9999;" vertex="1" parent="1">
          <mxGeometry x="490" y="120" width="200" height="60" as="geometry" />
        </mxCell>
        <mxCell id="f-bGw2C7DWIZB9Q9RAM1-11" value="Pulsar集群" style="text;html=1;strokeColor=none;fillColor=none;align=center;verticalAlign=middle;whiteSpace=wrap;rounded=0;" vertex="1" parent="1">
          <mxGeometry x="540" y="130" width="100" height="30" as="geometry" />
        </mxCell>
        <mxCell id="f-bGw2C7DWIZB9Q9RAM1-19" style="edgeStyle=orthogonalEdgeStyle;curved=1;rounded=0;orthogonalLoop=1;jettySize=auto;html=1;exitX=0.5;exitY=1;exitDx=0;exitDy=0;entryX=1;entryY=0.25;entryDx=0;entryDy=0;" edge="1" parent="1" source="f-bGw2C7DWIZB9Q9RAM1-12" target="f-bGw2C7DWIZB9Q9RAM1-14">
          <mxGeometry relative="1" as="geometry" />
        </mxCell>
        <mxCell id="f-bGw2C7DWIZB9Q9RAM1-20" value="2.时间到了回调延迟服务" style="edgeLabel;html=1;align=center;verticalAlign=middle;resizable=0;points=[];" vertex="1" connectable="0" parent="f-bGw2C7DWIZB9Q9RAM1-19">
          <mxGeometry x="-0.2709" y="-15" relative="1" as="geometry">
            <mxPoint as="offset" />
          </mxGeometry>
        </mxCell>
        <mxCell id="f-bGw2C7DWIZB9Q9RAM1-12" value="1天内消息" style="text;html=1;strokeColor=none;fillColor=none;align=center;verticalAlign=middle;whiteSpace=wrap;rounded=0;" vertex="1" parent="1">
          <mxGeometry x="525" y="160" width="130" height="20" as="geometry" />
        </mxCell>
        <mxCell id="f-bGw2C7DWIZB9Q9RAM1-27" style="edgeStyle=orthogonalEdgeStyle;curved=1;rounded=0;orthogonalLoop=1;jettySize=auto;html=1;exitX=0.5;exitY=1;exitDx=0;exitDy=0;entryX=0.5;entryY=0;entryDx=0;entryDy=0;" edge="1" parent="1" source="f-bGw2C7DWIZB9Q9RAM1-14" target="f-bGw2C7DWIZB9Q9RAM1-26">
          <mxGeometry relative="1" as="geometry" />
        </mxCell>
        <mxCell id="f-bGw2C7DWIZB9Q9RAM1-28" value="3.HMS投递给目标主题" style="edgeLabel;html=1;align=center;verticalAlign=middle;resizable=0;points=[];" vertex="1" connectable="0" parent="f-bGw2C7DWIZB9Q9RAM1-27">
          <mxGeometry x="-0.1714" y="1" relative="1" as="geometry">
            <mxPoint as="offset" />
          </mxGeometry>
        </mxCell>
        <mxCell id="f-bGw2C7DWIZB9Q9RAM1-14" value="延迟服务" style="rounded=1;whiteSpace=wrap;html=1;fillColor=#FFCCFF;" vertex="1" parent="1">
          <mxGeometry x="310" y="300" width="200" height="60" as="geometry" />
        </mxCell>
        <mxCell id="f-bGw2C7DWIZB9Q9RAM1-26" value="" style="ellipse;html=1;shape=endState;fillColor=#000000;strokeColor=#ff0000;" vertex="1" parent="1">
          <mxGeometry x="395" y="430" width="30" height="30" as="geometry" />
        </mxCell>
      </root>
    </mxGraphModel>
  </diagram>
</mxfile>
